<?xml version="1.0" standalone="no"?> <!DOCTYPE svg PUBLIC "-//W3C//DTD SVG 20010904//EN" "http://www.w3.org/TR/2001/REC-SVG-20010904/DTD/svg10.dtd"> <svg version="1.0" xmlns="http://www.w3.org/2000/svg" width="500.000000pt" height="500.000000pt" viewBox="0 0 500.000000 500.000000" preserveAspectRatio="xMidYMid meet"> <g transform="translate(0.000000,500.000000) scale(0.100000,-0.100000)" fill="#ffffff" stroke="none"> <path d="M1806 3238 c-73 -16 -137 -86 -136 -150 1 -22 2 -21 17 7 48 90 75 17 29 -80 -12 -28 -49 -91 -81 -140 -76 -118 -117 -207 -123 -267 -6 -66 13 -88 80 -88 64 0 98 31 98 89 0 22 4 51 10 65 9 24 15 26 64 26 78 0 116 -9 116 -29 0 -34 52 -122 81 -136 82 -43 179 17 179 111 0 26 -1 26 -19 10 -13 -11 -27 -15 -40 -11 -32 10 -49 90 -56 273 -3 92 -12 183 -20 210 -27 88 -105 132 -199 110z m61 -320 l6 -116 -64 -4 c-35 -2 -65 -3 -67 -3 -1 1 16 46 38 101 23 54 46 122 52 149 11 50 11 50 20 20 5 -16 12 -82 15 -147z"/> <path d="M2305 3210 c-41 -16 -49 -38 -50 -133 -1 -63 -12 -135 -33 -228 -33 -141 -40 -234 -21 -272 43 -84 177 -72 215 19 17 40 12 53 -11 34 -24 -20 -45 -5 -45 35 0 19 14 99 30 178 46 216 52 262 40 307 -15 57 -70 83 -125 60z"/> <path d="M2717 3020 c-131 -33 -226 -142 -235 -271 -7 -97 27 -168 101 -210 99 -55 273 -14 324 76 13 22 23 53 23 69 l0 30 -27 -27 c-59 -55 -150 -73 -195 -37 -24 18 -55 76 -47 85 2 2 27 -3 56 -10 75 -20 132 -4 185 52 71 75 59 191 -25 231 -36 17 -114 23 -160 12z m84 -104 c16 -33 4 -73 -32 -108 -25 -25 -35 -29 -62 -24 -17 4 -35 10 -40 15 -13 13 10 85 38 115 32 35 81 36 96 2z"/> <path d="M3077 3010 c-23 -18 -57 -94 -57 -127 0 -11 4 -11 19 -1 26 16 49 -4 91 -83 l31 -59 -22 -31 c-25 -36 -73 -59 -123 -59 -29 0 -37 -4 -42 -24 -10 -42 0 -78 28 -99 56 -42 140 13 169 111 l12 42 23 -41 c42 -73 67 -101 102 -116 65 -27 119 20 137 121 7 37 7 37 -14 24 -29 -18 -48 -4 -90 66 -29 49 -32 58 -20 73 19 22 88 53 121 53 61 0 75 130 18 160 -47 25 -125 -39 -157 -129 l-17 -50 -38 69 c-61 111 -116 143 -171 100z"/> <path d="M649 2290 c-137 -24 -248 -124 -249 -224 0 -29 1 -28 31 18 48 72 89 85 89 28 0 -15 -20 -84 -44 -154 -54 -154 -80 -269 -72 -311 10 -49 43 -77 91 -77 60 0 85 22 85 74 0 43 12 123 32 210 l11 49 15 -29 c8 -16 33 -74 54 -129 48 -121 76 -161 126 -176 91 -27 173 66 152 174 -5 28 -5 28 -22 7 -36 -42 -78 -19 -122 68 -13 26 -32 54 -40 61 -24 20 -20 25 27 39 55 17 102 59 127 114 48 106 0 212 -110 246 -53 16 -129 21 -181 12z m123 -140 c39 -48 2 -129 -68 -149 -50 -14 -55 -5 -48 93 l7 88 46 -5 c30 -3 51 -12 63 -27z"/> <path d="M2268 2274 c-34 -18 -48 -43 -48 -87 0 -76 102 -107 161 -48 20 20 29 39 29 61 0 22 -9 41 -29 61 -33 33 -70 37 -113 13z"/> <path d="M1667 2251 l-29 -19 -2 -128 c-2 -75 -12 -182 -24 -254 -35 -202 -30 -245 34 -264 29 -9 74 10 74 30 0 15 3 15 23 -3 36 -33 63 -43 114 -43 85 0 149 59 184 171 21 68 26 200 8 246 -15 40 -57 81 -91 88 -36 8 -108 -25 -143 -67 -14 -16 -25 -26 -25 -21 0 5 5 46 10 91 8 58 7 94 0 122 -18 67 -76 89 -133 51z m222 -307 c14 -32 14 -136 -1 -186 -25 -83 -98 -117 -134 -63 -14 22 -15 34 -5 81 6 31 23 83 37 115 40 88 78 108 103 53z"/> <path d="M1246 2069 c-85 -21 -173 -104 -202 -191 -24 -74 -16 -173 19 -226 90 -137 330 -110 424 47 80 134 57 288 -53 348 -47 26 -132 36 -188 22z m87 -119 c26 -50 20 -210 -9 -260 -28 -49 -70 -49 -98 -1 -36 62 -23 232 22 284 25 28 64 18 85 -23z"/> <path d="M3217 2065 c-111 -30 -170 -101 -148 -176 12 -41 44 -71 141 -133 75 -48 90 -82 47 -111 -46 -30 -98 10 -112 88 -8 42 -26 47 -75 22 -35 -18 -50 -43 -50 -83 0 -120 251 -150 388 -45 62 47 77 127 31 169 -11 11 -57 39 -102 64 -88 49 -120 86 -101 117 27 43 87 18 102 -41 7 -27 12 -31 38 -28 41 4 78 34 82 65 10 83 -109 128 -241 92z"/> <path d="M3738 2067 c-126 -36 -211 -152 -211 -287 -1 -137 78 -214 218 -214 166 0 285 125 285 297 -1 155 -134 248 -292 204z m89 -109 c26 -47 25 -208 -1 -261 -35 -71 -94 -57 -115 28 -14 55 -14 100 0 164 21 98 81 133 116 69z"/> <path d="M2205 2052 c-36 -22 -51 -39 -64 -74 -9 -25 -8 -26 22 -24 29 1 32 -2 35 -30 2 -16 -11 -67 -28 -113 -40 -111 -41 -172 -1 -212 54 -54 156 -28 187 47 17 41 12 53 -12 33 -14 -11 -18 -11 -29 4 -14 20 -12 33 30 172 30 103 29 154 -6 191 -28 30 -90 32 -134 6z"/> <path d="M2479 2031 c-26 -25 -39 -48 -39 -65 0 -24 2 -25 20 -14 16 10 23 10 36 -4 16 -16 16 -25 -10 -140 -17 -78 -24 -135 -20 -155 17 -83 108 -112 159 -51 27 32 27 35 21 123 -6 83 -5 94 17 135 25 48 77 86 103 76 18 -7 17 -41 -9 -177 -17 -92 -12 -131 20 -164 51 -50 159 -22 189 50 18 45 18 48 -6 35 -11 -6 -25 -8 -30 -5 -14 9 -12 78 5 168 24 125 18 195 -19 219 -6 4 -29 8 -52 8 -46 0 -114 -38 -156 -88 -26 -31 -39 -40 -37 -24 5 32 -5 67 -26 87 -19 20 -34 25 -76 25 -46 0 -55 -4 -90 -39z"/> <path d="M4129 2031 c-26 -25 -39 -48 -39 -65 0 -24 2 -25 20 -14 16 10 23 10 36 -4 16 -16 16 -25 -10 -140 -30 -137 -28 -174 12 -213 36 -36 85 -34 124 6 l31 30 -7 95 c-7 91 -6 97 19 139 27 46 76 81 101 71 18 -7 18 -49 -2 -133 -19 -81 -20 -164 -3 -191 43 -69 167 -49 206 33 18 38 12 55 -11 36 -38 -32 -46 30 -21 162 31 163 13 227 -66 227 -52 0 -106 -28 -152 -79 -36 -40 -48 -49 -46 -33 5 32 -5 67 -26 87 -19 20 -34 25 -76 25 -46 0 -55 -4 -90 -39z"/> </g> </svg>